<?xml version="1.0" encoding="UTF-8" standalone="no"?>
<svg
   width="24"
   height="24"
   viewBox="0 0 24 24"
   fill="none"
   stroke="currentColor"
   stroke-width="2"
   stroke-linecap="round"
   stroke-linejoin="round"
   class="feather feather-airplay"
   version="1.1"
   id="svg1"
   sodipodi:docname="ethernet.svg"
   inkscape:version="1.4 (e7c3feb100, 2024-10-09)"
   inkscape:export-filename="ethernet.svg"
   inkscape:export-xdpi="96"
   inkscape:export-ydpi="96"
   xmlns:inkscape="http://www.inkscape.org/namespaces/inkscape"
   xmlns:sodipodi="http://sodipodi.sourceforge.net/DTD/sodipodi-0.dtd"
   xmlns="http://www.w3.org/2000/svg"
   xmlns:svg="http://www.w3.org/2000/svg">
  <defs
     id="defs1" />
  <sodipodi:namedview
     id="namedview1"
     pagecolor="#ffffff"
     bordercolor="#000000"
     borderopacity="0.25"
     inkscape:showpageshadow="2"
     inkscape:pageopacity="0.0"
     inkscape:pagecheckerboard="0"
     inkscape:deskcolor="#d1d1d1"
     inkscape:zoom="11.313708"
     inkscape:cx="18.119611"
     inkscape:cy="7.5572037"
     inkscape:window-width="1920"
     inkscape:window-height="1080"
     inkscape:window-x="0"
     inkscape:window-y="0"
     inkscape:window-maximized="1"
     inkscape:current-layer="svg1"
     showguides="true" />
  <g
     id="g6">
    <path
       d="M5 17H4a2 2 0 0 1-2-2V5a2 2 0 0 1 2-2h16a2 2 0 0 1 2 2v10a2 2 0 0 1-2 2h-1"
       id="path1"
       style="stroke-width:1.16;stroke-dasharray:none" />
    <path
       d="m 7.3985916,12.026761 c -0.6425171,0 -1.1633803,-0.520863 -1.1633803,-1.16338 V 7.6830985 c 0,-0.6425172 0.5208673,-1.1657139 1.1633803,-1.1633803 l 9.3070424,0.033803 c 0.642513,0.00233 1.16338,0.5208632 1.16338,1.1633803 v 3.1464797 c 0,0.642517 -0.520863,1.16338 -1.16338,1.16338"
       id="path1-5"
       style="stroke-width:1.16;stroke-dasharray:none"
       sodipodi:nodetypes="cssssssc" />
    <path
       d="m 14.84375,14.691099 c 0.444347,0 0.939773,-0.42782 0.939773,-0.872167 v -0.946758 c 0,-0.444347 0.273507,-0.804538 0.716565,-0.838364 L 16.942879,12"
       id="path1-5-2-2"
       style="fill:#000000;fill-opacity:0;stroke-width:1.16;stroke-dasharray:none"
       sodipodi:nodetypes="csssc" />
    <path
       d="m 9.302254,14.691099 c -0.444347,0 -0.939773,-0.42782 -0.939773,-0.872167 v -0.946758 c 0,-0.444347 -0.273507,-0.804538 -0.716565,-0.838364 L 7.203125,12"
       id="path1-5-2-2-9"
       style="fill:#000000;fill-opacity:0;stroke-width:1.16;stroke-dasharray:none"
       sodipodi:nodetypes="csssc" />
    <path
       style="opacity:1;fill:#000000;fill-opacity:0;fill-rule:evenodd;stroke:#000000;stroke-width:1.14401;stroke-linecap:round;stroke-linejoin:round;stroke-miterlimit:100;stroke-dasharray:none;stroke-opacity:1"
       d="M 14.732538,14.694563 H 9.1875589"
       id="path6" />
  </g>
</svg>
